<mxfile host="Electron" agent="Mozilla/5.0 (Windows NT 10.0; Win64; x64) AppleWebKit/537.36 (KHTML, like Gecko) draw.io/26.0.9 Chrome/128.0.6613.186 Electron/32.2.5 Safari/537.36" version="26.0.9">
  <diagram name="Page-1" id="0SSIopHa4KQqgShaAo-E">
    <mxGraphModel dx="1098" dy="820" grid="1" gridSize="10" guides="1" tooltips="1" connect="1" arrows="1" fold="1" page="1" pageScale="1" pageWidth="850" pageHeight="1100" math="0" shadow="0">
      <root>
        <mxCell id="0" />
        <mxCell id="1" parent="0" />
        <mxCell id="D9UuQ2wnrxMEj07U3R2p-6" value="blink" style="swimlane;fontStyle=1;align=center;verticalAlign=middle;childLayout=stackLayout;horizontal=1;startSize=30;horizontalStack=0;resizeParent=0;resizeLast=1;container=0;fontColor=#000000;collapsible=0;rounded=1;arcSize=30;strokeColor=#ff0000;fillColor=#ffffc0;swimlaneFillColor=#ffffc0;dropTarget=0;" vertex="1" parent="1">
          <mxGeometry x="135" y="210" width="160" height="140" as="geometry" />
        </mxCell>
        <mxCell id="D9UuQ2wnrxMEj07U3R2p-9" value="&lt;div&gt;&lt;br&gt;&lt;/div&gt;&lt;div&gt;&lt;br&gt;&lt;/div&gt;" style="text;html=1;strokeColor=none;fillColor=none;align=center;verticalAlign=middle;spacingLeft=4;spacingRight=4;whiteSpace=wrap;overflow=hidden;rotatable=0;fontColor=#000000;" vertex="1" parent="D9UuQ2wnrxMEj07U3R2p-6">
          <mxGeometry y="30" width="160" height="110" as="geometry" />
        </mxCell>
        <mxCell id="D9UuQ2wnrxMEj07U3R2p-10" value="entry / LED_on; arm te for time_blink&lt;div&gt;exit / LED_off;&lt;/div&gt;" style="text;strokeColor=none;fillColor=none;align=left;verticalAlign=top;spacingLeft=4;spacingRight=4;overflow=hidden;rotatable=0;points=[[0,0.5],[1,0.5]];portConstraint=eastwest;whiteSpace=wrap;html=1;fontColor=#3333FF;" vertex="1" parent="1">
          <mxGeometry x="135" y="240" width="160" height="50" as="geometry" />
        </mxCell>
        <mxCell id="D9UuQ2wnrxMEj07U3R2p-8" value="" style="edgeStyle=orthogonalEdgeStyle;html=1;verticalAlign=bottom;endArrow=open;endSize=8;strokeColor=#ff0000;rounded=0;" edge="1" parent="1">
          <mxGeometry relative="1" as="geometry">
            <mxPoint x="300" y="400" as="targetPoint" />
            <mxPoint x="135" y="330" as="sourcePoint" />
            <Array as="points">
              <mxPoint x="357" y="330" />
              <mxPoint x="357" y="400" />
            </Array>
          </mxGeometry>
        </mxCell>
        <mxCell id="D9UuQ2wnrxMEj07U3R2p-11" value="&lt;div style=&quot;text-align: left;&quot;&gt;&lt;br&gt;&lt;/div&gt;" style="edgeLabel;html=1;align=center;verticalAlign=middle;resizable=0;points=[];" vertex="1" connectable="0" parent="D9UuQ2wnrxMEj07U3R2p-8">
          <mxGeometry x="-0.6485" y="2" relative="1" as="geometry">
            <mxPoint as="offset" />
          </mxGeometry>
        </mxCell>
        <mxCell id="D9UuQ2wnrxMEj07U3R2p-13" value="pause" style="swimlane;fontStyle=1;align=center;verticalAlign=middle;childLayout=stackLayout;horizontal=1;startSize=30;horizontalStack=0;resizeParent=0;resizeLast=1;container=0;fontColor=#000000;collapsible=0;rounded=1;arcSize=30;strokeColor=#ff0000;fillColor=#ffffc0;swimlaneFillColor=#ffffc0;dropTarget=0;" vertex="1" parent="1">
          <mxGeometry x="135" y="370" width="160" height="130" as="geometry" />
        </mxCell>
        <mxCell id="D9UuQ2wnrxMEj07U3R2p-14" value="&lt;div&gt;&lt;br&gt;&lt;/div&gt;&lt;div&gt;&lt;br&gt;&lt;/div&gt;" style="text;html=1;strokeColor=none;fillColor=none;align=center;verticalAlign=middle;spacingLeft=4;spacingRight=4;whiteSpace=wrap;overflow=hidden;rotatable=0;fontColor=#000000;" vertex="1" parent="D9UuQ2wnrxMEj07U3R2p-13">
          <mxGeometry y="30" width="160" height="100" as="geometry" />
        </mxCell>
        <mxCell id="D9UuQ2wnrxMEj07U3R2p-15" value="entry / LED_off; arm te for time_blink;" style="text;strokeColor=none;fillColor=none;align=left;verticalAlign=top;spacingLeft=4;spacingRight=4;overflow=hidden;rotatable=0;points=[[0,0.5],[1,0.5]];portConstraint=eastwest;whiteSpace=wrap;html=1;fontColor=#3333FF;" vertex="1" parent="1">
          <mxGeometry x="135" y="400" width="160" height="50" as="geometry" />
        </mxCell>
        <mxCell id="D9UuQ2wnrxMEj07U3R2p-18" value="waitforbutton" style="swimlane;fontStyle=1;align=center;verticalAlign=middle;childLayout=stackLayout;horizontal=1;startSize=30;horizontalStack=0;resizeParent=0;resizeLast=1;container=0;fontColor=#000000;collapsible=0;rounded=1;arcSize=30;strokeColor=#ff0000;fillColor=#ffffc0;swimlaneFillColor=#ffffc0;dropTarget=0;" vertex="1" parent="1">
          <mxGeometry x="135" y="60" width="160" height="130" as="geometry" />
        </mxCell>
        <mxCell id="D9UuQ2wnrxMEj07U3R2p-19" value="&lt;div&gt;&lt;br&gt;&lt;/div&gt;&lt;div&gt;&lt;br&gt;&lt;/div&gt;" style="text;html=1;strokeColor=none;fillColor=none;align=center;verticalAlign=middle;spacingLeft=4;spacingRight=4;whiteSpace=wrap;overflow=hidden;rotatable=0;fontColor=#000000;" vertex="1" parent="D9UuQ2wnrxMEj07U3R2p-18">
          <mxGeometry y="30" width="160" height="100" as="geometry" />
        </mxCell>
        <mxCell id="D9UuQ2wnrxMEj07U3R2p-20" value="entry / LED_off;&lt;div&gt;exit / LED_on;&lt;/div&gt;" style="text;strokeColor=none;fillColor=none;align=left;verticalAlign=top;spacingLeft=4;spacingRight=4;overflow=hidden;rotatable=0;points=[[0,0.5],[1,0.5]];portConstraint=eastwest;whiteSpace=wrap;html=1;fontColor=#3333FF;" vertex="1" parent="1">
          <mxGeometry x="135" y="90" width="160" height="40" as="geometry" />
        </mxCell>
        <mxCell id="D9UuQ2wnrxMEj07U3R2p-21" value="" style="edgeStyle=orthogonalEdgeStyle;html=1;verticalAlign=bottom;endArrow=open;endSize=8;strokeColor=#ff0000;rounded=0;entryX=1.031;entryY=0.05;entryDx=0;entryDy=0;entryPerimeter=0;" edge="1" parent="1" target="D9UuQ2wnrxMEj07U3R2p-10">
          <mxGeometry relative="1" as="geometry">
            <mxPoint x="310" y="270" as="targetPoint" />
            <mxPoint x="135" y="170" as="sourcePoint" />
            <Array as="points">
              <mxPoint x="357" y="170" />
              <mxPoint x="357" y="242" />
            </Array>
          </mxGeometry>
        </mxCell>
        <mxCell id="D9UuQ2wnrxMEj07U3R2p-23" value="BUTTON_PRESSED / blink_ctr=3;" style="text;html=1;align=left;verticalAlign=middle;whiteSpace=wrap;rounded=0;fontColor=#FF3333;" vertex="1" parent="1">
          <mxGeometry x="135" y="140" width="160" height="30" as="geometry" />
        </mxCell>
        <mxCell id="D9UuQ2wnrxMEj07U3R2p-25" value="&lt;div style=&quot;font-size: 11px; text-wrap: nowrap;&quot;&gt;&lt;font style=&quot;color: rgb(255, 51, 51);&quot;&gt;TIMEOUT&lt;/font&gt;&lt;/div&gt;" style="text;html=1;align=left;verticalAlign=middle;whiteSpace=wrap;rounded=0;" vertex="1" parent="1">
          <mxGeometry x="135" y="300" width="160" height="30" as="geometry" />
        </mxCell>
        <mxCell id="D9UuQ2wnrxMEj07U3R2p-26" value="&lt;div style=&quot;font-size: 11px; text-wrap: nowrap;&quot;&gt;&lt;font style=&quot;color: rgb(255, 51, 51);&quot;&gt;TIMEOUT / blink_ctr--;&lt;/font&gt;&lt;/div&gt;" style="text;html=1;align=left;verticalAlign=middle;whiteSpace=wrap;rounded=0;" vertex="1" parent="1">
          <mxGeometry x="135" y="450" width="160" height="30" as="geometry" />
        </mxCell>
        <mxCell id="D9UuQ2wnrxMEj07U3R2p-27" value="" style="rhombus;whiteSpace=wrap;html=1;fontColor=#000000;fillColor=#ffffc0;strokeColor=#ff0000;" vertex="1" parent="1">
          <mxGeometry x="390" y="470" width="20" height="20" as="geometry" />
        </mxCell>
        <mxCell id="D9UuQ2wnrxMEj07U3R2p-28" value="[blink_ctr &amp;gt; 0]" style="edgeStyle=orthogonalEdgeStyle;html=1;align=left;verticalAlign=bottom;endArrow=open;endSize=8;strokeColor=#ff0000;rounded=0;exitX=0.5;exitY=0;exitDx=0;exitDy=0;entryX=1;entryY=0.5;entryDx=0;entryDy=0;" edge="1" source="D9UuQ2wnrxMEj07U3R2p-27" parent="1">
          <mxGeometry x="-0.7966" relative="1" as="geometry">
            <mxPoint x="295" y="280" as="targetPoint" />
            <Array as="points">
              <mxPoint x="400" y="280" />
            </Array>
            <mxPoint as="offset" />
          </mxGeometry>
        </mxCell>
        <mxCell id="D9UuQ2wnrxMEj07U3R2p-29" value="[else] /&amp;nbsp;" style="edgeStyle=orthogonalEdgeStyle;html=1;align=left;verticalAlign=top;endArrow=open;endSize=8;strokeColor=#ff0000;rounded=0;exitX=0.5;exitY=1;exitDx=0;exitDy=0;" edge="1" source="D9UuQ2wnrxMEj07U3R2p-27" parent="1">
          <mxGeometry x="-0.8286" relative="1" as="geometry">
            <mxPoint x="300" y="565" as="targetPoint" />
            <Array as="points">
              <mxPoint x="400" y="565" />
            </Array>
            <mxPoint as="offset" />
          </mxGeometry>
        </mxCell>
        <mxCell id="D9UuQ2wnrxMEj07U3R2p-30" value="boom" style="swimlane;fontStyle=1;align=center;verticalAlign=middle;childLayout=stackLayout;horizontal=1;startSize=30;horizontalStack=0;resizeParent=0;resizeLast=1;container=0;fontColor=#000000;collapsible=0;rounded=1;arcSize=30;strokeColor=#ff0000;fillColor=#ffffc0;swimlaneFillColor=#ffffc0;dropTarget=0;" vertex="1" parent="1">
          <mxGeometry x="135" y="530" width="160" height="80" as="geometry" />
        </mxCell>
        <mxCell id="D9UuQ2wnrxMEj07U3R2p-31" value="&lt;div&gt;&lt;br&gt;&lt;/div&gt;&lt;div&gt;&lt;br&gt;&lt;/div&gt;" style="text;html=1;strokeColor=none;fillColor=none;align=center;verticalAlign=middle;spacingLeft=4;spacingRight=4;whiteSpace=wrap;overflow=hidden;rotatable=0;fontColor=#000000;" vertex="1" parent="D9UuQ2wnrxMEj07U3R2p-30">
          <mxGeometry y="30" width="160" height="50" as="geometry" />
        </mxCell>
        <mxCell id="D9UuQ2wnrxMEj07U3R2p-32" value="entry / LED_on;" style="text;strokeColor=none;fillColor=none;align=left;verticalAlign=top;spacingLeft=4;spacingRight=4;overflow=hidden;rotatable=0;points=[[0,0.5],[1,0.5]];portConstraint=eastwest;whiteSpace=wrap;html=1;fontColor=#3333FF;" vertex="1" parent="1">
          <mxGeometry x="135" y="560" width="160" height="40" as="geometry" />
        </mxCell>
        <mxCell id="D9UuQ2wnrxMEj07U3R2p-44" value="" style="edgeStyle=orthogonalEdgeStyle;html=1;verticalAlign=bottom;endArrow=open;endSize=8;strokeColor=#ff0000;rounded=0;entryX=1.031;entryY=0;entryDx=0;entryDy=0;entryPerimeter=0;" edge="1" parent="1" target="D9UuQ2wnrxMEj07U3R2p-20">
          <mxGeometry relative="1" as="geometry">
            <mxPoint x="330" y="90" as="targetPoint" />
            <mxPoint x="80" y="40" as="sourcePoint" />
            <Array as="points">
              <mxPoint x="340" y="40" />
              <mxPoint x="340" y="90" />
            </Array>
          </mxGeometry>
        </mxCell>
        <mxCell id="D9UuQ2wnrxMEj07U3R2p-46" value="" style="edgeStyle=orthogonalEdgeStyle;html=1;verticalAlign=bottom;endArrow=open;endSize=8;strokeColor=#ff0000;rounded=0;exitX=0;exitY=1;exitDx=0;exitDy=0;entryX=0;entryY=0.5;entryDx=0;entryDy=0;" edge="1" source="D9UuQ2wnrxMEj07U3R2p-26" parent="1" target="D9UuQ2wnrxMEj07U3R2p-27">
          <mxGeometry relative="1" as="geometry">
            <mxPoint x="380" y="465" as="targetPoint" />
            <mxPoint x="595" y="360" as="sourcePoint" />
            <Array as="points">
              <mxPoint x="370" y="480" />
              <mxPoint x="370" y="480" />
            </Array>
          </mxGeometry>
        </mxCell>
        <mxCell id="D9UuQ2wnrxMEj07U3R2p-47" value="" style="ellipse;html=1;shape=startState;fillColor=#000000;strokeColor=#ff0000;" vertex="1" parent="1">
          <mxGeometry x="70" y="30" width="20" height="20" as="geometry" />
        </mxCell>
      </root>
    </mxGraphModel>
  </diagram>
</mxfile>
